<svg width="77" height="59" viewBox="0 0 77 59" fill="none" xmlns="http://www.w3.org/2000/svg">
<path d="M75.6822 45.0813L75.1822 45.0852L75.6822 45.0813ZM65.6825 55.1594L65.6825 54.6594L65.6825 55.1594ZM0.498045 55.1594L5.49804 52.2727L5.49805 58.0462L0.498045 55.1594ZM75.834 0.503907L76.1821 45.0774L75.1822 45.0852L74.834 0.511718L75.834 0.503907ZM65.6825 55.6594L4.99804 55.6594L4.99804 54.6594L65.6825 54.6594L65.6825 55.6594ZM76.1821 45.0774C76.2277 50.9083 71.5135 55.6594 65.6825 55.6594L65.6825 54.6594C70.9582 54.6594 75.2234 50.3608 75.1822 45.0852L76.1821 45.0774Z" fill="#8EEA19"/>
</svg>
