<svg width="76" height="59" viewBox="0 0 76 59" fill="none" xmlns="http://www.w3.org/2000/svg">
<path d="M0.757288 13.6726L1.25727 13.6687L0.757288 13.6726ZM10.757 3.59447L10.757 4.09447L10.757 3.59447ZM75.9414 3.59447L70.9414 6.48122L70.9414 0.707716L75.9414 3.59447ZM0.605484 58.25L0.257304 13.6765L1.25727 13.6687L1.60545 58.2422L0.605484 58.25ZM10.757 3.09447L71.4414 3.09447L71.4414 4.09447L10.757 4.09447L10.757 3.09447ZM0.257304 13.6765C0.211755 7.84561 4.92594 3.09447 10.757 3.09447L10.757 4.09447C5.48128 4.09447 1.21606 8.39312 1.25727 13.6687L0.257304 13.6765Z" fill="#8EEA19"/>
</svg>
