<svg width="76" height="59" viewBox="0 0 76 59" fill="none" xmlns="http://www.w3.org/2000/svg">
<path d="M75.2447 13.6726L74.7447 13.6687L75.2447 13.6726ZM65.245 3.59447L65.245 4.09447L65.245 3.59447ZM0.0605448 3.59447L5.06054 6.48122L5.06055 0.707716L0.0605448 3.59447ZM75.3965 58.25L75.7446 13.6765L74.7447 13.6687L74.3965 58.2422L75.3965 58.25ZM65.245 3.09447L4.56054 3.09447L4.56054 4.09447L65.245 4.09447L65.245 3.09447ZM75.7446 13.6765C75.7902 7.84561 71.076 3.09447 65.245 3.09447L65.245 4.09447C70.5207 4.09447 74.7859 8.39312 74.7447 13.6687L75.7446 13.6765Z" fill="#8EEA19"/>
</svg>
