<svg width="76" height="59" viewBox="0 0 76 59" fill="none" xmlns="http://www.w3.org/2000/svg">
<path d="M0.755335 45.3274L1.25532 45.3313L0.755335 45.3274ZM10.755 55.4055L10.755 54.9055L10.755 55.4055ZM75.9395 55.4055L70.9395 52.5188L70.9395 58.2923L75.9395 55.4055ZM0.603531 0.750001L0.255351 45.3235L1.25532 45.3313L1.6035 0.757812L0.603531 0.750001ZM10.755 55.9055L71.4395 55.9055L71.4395 54.9055L10.755 54.9055L10.755 55.9055ZM0.255351 45.3235C0.209802 51.1544 4.92399 55.9055 10.755 55.9055L10.755 54.9055C5.47932 54.9055 1.21411 50.6069 1.25532 45.3313L0.255351 45.3235Z" fill="#8EEA19"/>
</svg>
