<svg width="97" height="68" viewBox="0 0 97 68" fill="none" xmlns="http://www.w3.org/2000/svg">
<path d="M94.4973 39.2387C93.2547 43.767 90.2994 47.0768 87.3736 47.541C83.5165 59.5476 66.6691 65.8395 47.6979 65.8395C28.7267 65.8395 13.5891 59.388 9.91413 47.2219C6.96475 46.8709 3.8773 43.6567 2.47899 39.1575C0.795731 33.7561 2.17642 28.5433 5.56057 27.5164C5.91308 27.4091 6.27441 27.3511 6.64161 27.3453C8.08399 27.2989 9.59393 27.9864 10.9511 29.2163C14.1149 13.8419 29.8078 2.16016 48.6909 2.16016C67.5739 2.16016 83.1022 13.72 86.3806 28.9727C87.4764 28.1082 88.6603 27.6064 89.8206 27.5715C90.2231 27.5599 90.6226 27.6035 91.0133 27.7079C94.4298 28.6217 95.9896 33.7852 94.4973 39.2387Z" stroke="black" stroke-width="2.5" stroke-miterlimit="10"/>
<path d="M28.6572 34.914C29.1067 32.9067 30.0732 31.2155 31.2688 30.1073C32.4615 28.9963 33.8686 28.4771 35.2111 28.7701C36.5506 29.063 37.6053 30.119 38.2133 31.6216C38.8214 33.1242 38.9771 35.0591 38.5277 37.0665C38.0782 39.0739 37.1117 40.765 35.9161 41.8732C34.7234 42.9842 33.3163 43.5034 31.9738 43.2105C30.6343 42.9175 29.5796 41.8616 28.9716 40.3589C28.3635 38.8563 28.2078 36.9214 28.6572 34.914Z" fill="black" stroke="black" stroke-width="2.5"/>
<path d="M60.2458 37.1774C59.7522 35.1787 59.8639 33.241 60.4397 31.7267C61.0154 30.2096 62.0436 29.1305 63.3773 28.8085C64.711 28.4865 66.1298 28.9767 67.346 30.0587C68.5622 31.1407 69.5698 32.8087 70.0633 34.8074C70.5569 36.8061 70.4452 38.7439 69.8694 40.2581C69.2937 41.7752 68.2655 42.8543 66.9318 43.1763C65.5981 43.4983 64.1793 43.011 62.9631 41.9261C61.7469 40.8441 60.7393 39.1761 60.2458 37.1774Z" fill="black" stroke="black" stroke-width="2.5"/>
<path d="M6.64062 27.3442L7.10477 13.0547" stroke="black" stroke-width="2.5" stroke-miterlimit="10"/>
<path d="M89.2344 28.6274V13.0527" stroke="black" stroke-width="2.5" stroke-miterlimit="10"/>
<path d="M7.1582 8.66211C8.87383 8.66213 10.2539 10.034 10.2539 11.7129C10.2538 13.3917 8.87378 14.7636 7.1582 14.7637C5.44261 14.7637 4.06258 13.3917 4.0625 11.7129C4.0625 10.034 5.44256 8.66211 7.1582 8.66211Z" fill="#8EEA19" stroke="black"/>
<path d="M89.2363 8.66016C90.952 8.66018 92.332 10.0321 92.332 11.7109C92.3319 13.3898 90.9519 14.7617 89.2363 14.7617C87.5207 14.7617 86.1407 13.3898 86.1406 11.7109C86.1406 10.032 87.5207 8.66016 89.2363 8.66016Z" fill="#8EEA19" stroke="black"/>
<path d="M80.5688 36.1555C80.5688 45.2149 73.022 52.5598 63.7127 52.5598C60.9484 52.5598 58.3397 51.9129 56.0396 50.7671C56.0219 50.7584 55.9984 50.7468 55.9808 50.7381C55.6929 50.593 55.4227 50.5002 55.1436 50.3406C55.0702 50.2971 55.1054 50.3203 55.029 50.2913C53.0226 49.4298 50.6784 48.9366 48.1785 48.9366C45.6785 48.9366 43.3226 49.4327 41.3132 50.2971C41.3015 50.2971 41.2427 50.3435 41.231 50.3377C41.1605 50.3784 41.0694 50.4103 40.996 50.448C40.6699 50.593 40.4202 50.712 40.1117 50.8773C40.1059 50.8831 40.0001 50.9295 39.9942 50.9295C37.838 51.9158 35.532 52.4176 32.988 52.4176C23.7168 52.4176 16.4844 45.1046 16.4844 36.0859C16.4844 33.7333 16.7135 31.4968 17.633 29.4778C20.7469 21.6803 33.223 15.8496 48.1403 15.8496C57.056 15.8496 65.0992 17.9324 70.7953 21.2713C76.5648 23.8762 80.5658 29.5619 80.5658 36.1584L80.5688 36.1555Z" stroke="black" stroke-width="2.5" stroke-miterlimit="10"/>
<path d="M68.1386 25.649C67.9065 26.4555 66.8049 25.4779 65.1569 25.0166C63.506 24.5525 61.9314 24.7788 62.1635 23.9723C62.3955 23.1659 63.9231 22.8874 65.5711 23.3516C67.2221 23.8157 68.3707 24.8455 68.1386 25.649Z" fill="black"/>
<path d="M36.6657 24.4368C36.7979 25.2636 35.3849 24.8342 33.6899 25.0982C31.9949 25.3622 30.6612 26.2208 30.529 25.3912C30.3968 24.5616 31.6629 23.6768 33.3579 23.4128C35.053 23.1488 36.5335 23.6043 36.6657 24.4339V24.4368Z" fill="black"/>
</svg>
